<?xml version="1.0" standalone="no"?>
<!DOCTYPE svg PUBLIC "-//W3C//DTD SVG 20010904//EN"
 "http://www.w3.org/TR/2001/REC-SVG-20010904/DTD/svg10.dtd">
<svg version="1.0" xmlns="http://www.w3.org/2000/svg"
 width="95.000000pt" height="138.000000pt" viewBox="0 0 95.000000 138.000000"
 preserveAspectRatio="xMidYMid meet">
<metadata>
Created by potrace 1.16, written by Peter Selinger 2001-2019
</metadata>
<g transform="translate(0.000000,138.000000) scale(0.100000,-0.100000)"
fill="#000000" stroke="none">
<path d="M544 1297 c-111 -76 -211 -246 -222 -374 -3 -45 -9 -63 -21 -66 -9
-3 -58 -17 -110 -31 -55 -15 -104 -35 -118 -47 -53 -51 -11 -119 75 -119 l46
0 -27 -28 c-35 -37 -35 -74 0 -102 25 -20 36 -22 108 -17 79 6 79 6 36 -8 -24
-7 -54 -24 -67 -36 -54 -51 -12 -119 73 -119 52 0 52 8 -3 -131 -39 -100 -41
-119 -14 -144 21 -19 86 -32 131 -27 83 10 275 248 309 385 7 26 16 47 20 47
17 0 112 95 130 131 33 63 27 106 -20 150 -34 33 -40 44 -40 80 0 38 -5 48
-45 85 -34 31 -45 49 -45 72 0 37 -37 84 -80 102 -16 7 -30 16 -30 20 0 4 14
34 31 68 26 50 30 65 22 89 l-10 28 -31 -55 c-54 -94 -92 -197 -99 -265 -6
-64 -6 -65 -50 -91 -25 -14 -48 -23 -51 -19 -4 4 -7 37 -7 74 0 94 50 195 148
297 70 72 74 84 27 84 -10 0 -40 -15 -66 -33z m139 -595 c9 -16 21 -41 26 -56
10 -24 7 -28 -30 -52 -58 -36 -69 -39 -69 -18 0 11 -12 39 -25 63 -14 24 -24
44 -23 45 2 1 23 11 48 23 57 28 53 28 73 -5z m43 -184 c-10 -63 -41 -125
-103 -205 -56 -74 -161 -178 -170 -169 -3 3 17 30 45 62 77 86 144 241 127
293 -4 13 7 22 42 38 66 29 66 28 59 -19z"/>
</g>
</svg>
